<svg width="161" height="33" viewBox="0 0 161 33" fill="none" xmlns="http://www.w3.org/2000/svg">
<rect x="2.31836" y="21.6315" width="2.57617" height="7.98612" fill="#B01798"/>
<rect x="6.95557" y="21.6315" width="2.57617" height="11.0775" fill="#B01798"/>
<rect x="11.5928" y="21.6315" width="2.57617" height="7.98612" fill="#B01798"/>
<path d="M3.26837 5.27252C3.44661 2.68653 5.32048 0.533426 7.85712 -3.05176e-05C10.4492 0.537397 12.3988 2.68533 12.6833 5.3172L14.1687 19.0553H10.4333H9.53163H2.31836L3.26837 5.27252Z" fill="#B01798"/>
<circle cx="8.11465" cy="7.60744" r="1.41689" fill="white"/>
<rect x="6.69775" y="12.1158" width="3.0914" height="5.15233" fill="white"/>
<path d="M11.5928 16.2215H13.3961C14.9611 16.2215 16.2299 17.4903 16.2299 19.0553H11.5928V16.2215Z" fill="#B01798"/>
<path d="M0 19.0553C0 17.4903 1.26873 16.2215 2.83378 16.2215H4.6371V19.0553H0Z" fill="#B01798"/>
<path d="M27.0586 6.23854V26.6492H24.4099V6.23854H27.0586ZM38.2253 11.0685C39.5548 11.0685 40.5728 11.5256 41.2791 12.4396C42.0062 13.3329 42.3697 14.6105 42.3697 16.2725V26.6492H39.721V16.6464C39.721 14.569 39.0459 13.5303 37.6955 13.5303C37.0931 13.5303 36.4802 13.7588 35.857 14.2158C35.2338 14.6729 34.6937 15.2961 34.2366 16.0855V26.6492H31.5879V11.4425H34.0808V13.7173C34.6417 12.8655 35.2649 12.2111 35.9505 11.7541C36.6568 11.2971 37.4151 11.0685 38.2253 11.0685ZM49.3912 11.4425V26.6492H46.7425V11.4425H49.3912ZM48.0513 5.3037C48.6122 5.3037 49.0381 5.42835 49.3289 5.67764C49.6405 5.92693 49.7963 6.28009 49.7963 6.73712V7.6408C49.7963 8.09783 49.6405 8.45099 49.3289 8.70028C49.0381 8.9288 48.6122 9.04306 48.0513 9.04306C47.5112 9.04306 47.0853 8.9288 46.7737 8.70028C46.4829 8.45099 46.3374 8.09783 46.3374 7.6408V6.73712C46.3374 6.28009 46.4829 5.92693 46.7737 5.67764C47.0853 5.42835 47.5112 5.3037 48.0513 5.3037ZM56.8578 11.4425H60.9088V13.6238H56.8578V22.5359C56.8578 23.3253 57.0136 23.8966 57.3252 24.2498C57.6576 24.5822 58.1666 24.7484 58.8521 24.7484C59.7246 24.7484 60.5764 24.6445 61.4073 24.4367L61.4697 26.6492C60.5556 26.8985 59.7246 27.0231 58.9768 27.0231C57.3148 27.0231 56.0995 26.6596 55.3309 25.9325C54.583 25.1846 54.2091 23.9797 54.2091 22.3178V13.6238H52.0278V11.4425H54.2091L54.7077 7.39151H56.8578V11.4425ZM66.9195 11.4425V26.6492H64.2708V11.4425H66.9195ZM65.5795 5.3037C66.1404 5.3037 66.5663 5.42835 66.8572 5.67764C67.1688 5.92693 67.3246 6.28009 67.3246 6.73712V7.6408C67.3246 8.09783 67.1688 8.45099 66.8572 8.70028C66.5663 8.9288 66.1404 9.04306 65.5795 9.04306C65.0394 9.04306 64.6135 8.9288 64.3019 8.70028C64.0111 8.45099 63.8657 8.09783 63.8657 7.6408V6.73712C63.8657 6.28009 64.0111 5.92693 64.3019 5.67764C64.6135 5.42835 65.0394 5.3037 65.5795 5.3037ZM75.9129 11.0685C77.6995 11.0685 78.9979 11.4736 79.8081 12.2838C80.6391 13.0733 81.0545 14.3405 81.0545 16.0855V26.6492H78.5305V24.2186C77.3256 26.0883 75.9649 27.0231 74.4483 27.0231C73.2434 27.0231 72.2774 26.6077 71.5503 25.7767C70.844 24.9457 70.4909 23.8135 70.4909 22.3801V21.5076C70.4909 20.2611 70.9167 19.2328 71.7685 18.4226C72.6202 17.5916 73.7628 17.1762 75.1962 17.1762C75.9856 17.1762 77.0555 17.3112 78.4058 17.5813V15.8674C78.4058 14.9741 78.1981 14.3301 77.7826 13.9354C77.3879 13.5407 76.7647 13.3433 75.9129 13.3433C74.9158 13.3433 73.5135 13.4991 71.7062 13.8107V11.536C73.6589 11.2244 75.0612 11.0685 75.9129 11.0685ZM75.8506 19.2328C74.9781 19.2328 74.3133 19.4613 73.8563 19.9184C73.3992 20.3754 73.1707 21.0194 73.1707 21.8504V22.1931C73.1707 22.9618 73.3473 23.5642 73.7005 24.0005C74.0536 24.4367 74.5003 24.6549 75.0404 24.6549C75.6013 24.6549 76.1726 24.416 76.7543 23.9382C77.3567 23.4396 77.9073 22.7436 78.4058 21.8504V19.4509C77.6164 19.3055 76.7647 19.2328 75.8506 19.2328ZM88.3843 11.4425H92.4352V13.6238H88.3843V22.5359C88.3843 23.3253 88.5401 23.8966 88.8517 24.2498C89.1841 24.5822 89.693 24.7484 90.3786 24.7484C91.2511 24.7484 92.1029 24.6445 92.9338 24.4367L92.9961 26.6492C92.0821 26.8985 91.2511 27.0231 90.5032 27.0231C88.8413 27.0231 87.626 26.6596 86.8574 25.9325C86.1095 25.1846 85.7356 23.9797 85.7356 22.3178V13.6238H83.5543V11.4425H85.7356L86.2341 7.39151H88.3843V11.4425ZM100.783 11.0685C102.528 11.0685 103.858 11.5464 104.772 12.502C105.686 13.4576 106.143 14.8391 106.143 16.6464V19.856H98.1343V21.6946C98.1343 22.754 98.3836 23.5227 98.8822 24.0005C99.4016 24.4575 100.212 24.686 101.313 24.686C102.393 24.686 103.743 24.5198 105.364 24.1875L105.426 26.4934C103.494 26.8466 102.113 27.0231 101.282 27.0231C99.225 27.0231 97.7396 26.5765 96.8256 25.6832C95.9323 24.7899 95.4856 23.4084 95.4856 21.5387V16.6464C95.4856 14.8391 95.9219 13.4576 96.7944 12.502C97.6877 11.5464 99.0173 11.0685 100.783 11.0685ZM100.783 13.281C99.9729 13.281 99.3289 13.5407 98.8511 14.06C98.3733 14.5586 98.1343 15.2857 98.1343 16.2413V17.7371H103.494V16.3348C103.494 15.3376 103.245 14.5794 102.746 14.06C102.268 13.5407 101.614 13.281 100.783 13.281ZM128.889 6.23854V26.6492H126.24V17.3008H118.138V26.6492H115.49V6.23854H118.138V14.9325H126.24V6.23854H128.889ZM144.005 26.6492H141.512V24.4679C140.951 25.2989 140.328 25.9325 139.642 26.3687C138.957 26.805 138.23 27.0231 137.461 27.0231C136.194 27.0231 135.197 26.5869 134.469 25.7144C133.763 24.8211 133.41 23.5227 133.41 21.8192V11.4425H136.059V21.3518C136.059 22.4528 136.225 23.263 136.557 23.7824C136.91 24.3017 137.388 24.5614 137.991 24.5614C138.552 24.5614 139.133 24.3433 139.736 23.907C140.359 23.45 140.899 22.8267 141.356 22.0373V11.4425H144.005V26.6492ZM150.875 13.468C151.415 12.6993 152.038 12.1073 152.745 11.6918C153.451 11.2763 154.188 11.0685 154.957 11.0685C156.245 11.0685 157.242 11.5256 157.948 12.4396C158.655 13.3329 159.008 14.6417 159.008 16.366V21.2895C159.008 23.1799 158.561 24.6133 157.668 25.5897C156.775 26.5453 155.393 27.0231 153.524 27.0231C151.695 27.0231 150.356 26.5557 149.504 25.6209C148.652 24.686 148.226 23.263 148.226 21.3518V5.36602H150.875V13.468ZM154.334 13.4368C153.731 13.4368 153.118 13.6653 152.495 14.1224C151.872 14.5794 151.332 15.2026 150.875 15.992V21.6634C150.875 22.6813 151.103 23.4604 151.56 24.0005C152.038 24.5406 152.693 24.8107 153.524 24.8107C155.414 24.8107 156.359 23.7408 156.359 21.6011V16.7399C156.359 14.5378 155.684 13.4368 154.334 13.4368Z" fill="#B01798"/>
</svg>
