<svg width="40" height="40" viewBox="0 0 40 40" fill="none" xmlns="http://www.w3.org/2000/svg">
<g clip-path="url(#clip0)">
<path d="M19.9267 11.9562C22.5063 11.9562 24.5975 9.86498 24.5975 7.28538C24.5975 4.70577 22.5063 2.61459 19.9267 2.61459C17.347 2.61459 15.2559 4.70577 15.2559 7.28538C15.2559 9.86498 17.347 11.9562 19.9267 11.9562Z" fill="#B01798"/>
<path d="M36.2761 20.1356L31.923 19.2276C30.4399 18.9169 28.9756 19.5967 28.2015 20.8051C27.4496 20.4189 26.6411 20.0859 25.7811 19.8095V17.2209C25.7828 15.2623 24.1795 13.6607 22.2278 13.6607H17.7768C15.8148 13.6607 14.2183 15.2623 14.2183 17.2209V19.8232C13.3669 20.0944 12.567 20.4275 11.81 20.8154C11.0358 19.6018 9.56983 18.9169 8.08497 19.2276L3.72829 20.1356C1.81601 20.5356 0.574907 22.4324 0.974869 24.3516L2.06836 29.5751C2.4649 31.489 4.3634 32.7301 6.27743 32.3302L7.65581 32.0418C8.34583 33.0614 9.3003 33.997 10.5225 34.7969C13.0681 36.4654 16.4309 37.3855 19.9996 37.3855C25.4601 37.3855 30.1635 35.19 32.3298 32.0366L33.7305 32.3302C35.6428 32.7284 37.5413 31.489 37.9378 29.5751L39.033 24.3516C39.4312 22.4324 38.1901 20.5356 36.2761 20.1356ZM19.9979 35.602C16.7742 35.602 13.753 34.79 11.4991 33.3052C10.7267 32.8005 10.0864 32.2392 9.57317 31.6384L10.6289 31.4169C12.5446 31.0187 13.7857 29.1219 13.3857 27.2062L12.4055 22.5096C12.9771 22.2024 13.578 21.9328 14.2165 21.7029V22.5594C14.2165 24.5146 15.8163 26.1162 17.7749 26.1162H22.226C24.1795 26.1162 25.7793 24.5129 25.7793 22.5594V21.6582C26.4299 21.89 27.041 22.1561 27.6075 22.4581L26.6136 27.2079C26.217 29.1236 27.4564 31.0205 29.3721 31.4187L30.438 31.6418C28.4503 33.9953 24.5176 35.602 19.9979 35.602Z" fill="#B01798"/>
<path d="M35.329 18.0963C37.9086 18.0963 39.9998 16.0052 39.9998 13.4256C39.9998 10.846 37.9086 8.75479 35.329 8.75479C32.7494 8.75479 30.6582 10.846 30.6582 13.4256C30.6582 16.0052 32.7494 18.0963 35.329 18.0963Z" fill="#B01798"/>
<path d="M5.62912 17.9985C8.1559 17.4698 9.76952 14.9928 9.24764 12.4677C8.7155 9.94434 6.24363 8.32388 3.7151 8.8526C1.19174 9.37957 -0.428714 11.8549 0.100006 14.38C0.627055 16.9067 3.10234 18.5255 5.62912 17.9985Z" fill="#B01798"/>
</g>
<defs>
<clipPath id="clip0">
<rect width="40" height="40" fill="white"/>
</clipPath>
</defs>
</svg>
