<svg width="42" height="42" viewBox="0 0 42 42" fill="none" xmlns="http://www.w3.org/2000/svg">
<path d="M5.58594 10.0413L8.09532 11.4895C8.31949 11.6207 8.5967 11.6221 8.82193 11.4927C9.04751 11.3633 9.18612 11.1229 9.18541 10.863C9.18506 10.6031 9.04539 10.3637 8.81945 10.235L6.31008 8.78674C5.96427 8.59015 5.52406 8.70966 5.32499 9.0544C5.12628 9.39915 5.24261 9.83971 5.58594 10.0413Z" fill="#B01798"/>
<path d="M8.09507 24.7174L5.58569 26.1657C5.35975 26.2944 5.22008 26.5338 5.21973 26.7936C5.21902 27.0535 5.35763 27.294 5.58321 27.4234C5.80844 27.5528 6.08565 27.5514 6.30983 27.4202L8.8192 25.9719C9.04514 25.8432 9.18481 25.6038 9.18516 25.344C9.18587 25.0841 9.04726 24.8436 8.82168 24.7142C8.59645 24.5848 8.31924 24.5862 8.09507 24.7174Z" fill="#B01798"/>
<path d="M36.4134 26.1657L33.9041 24.7174C33.6799 24.5862 33.4027 24.5848 33.1775 24.7142C32.9519 24.8436 32.8133 25.0841 32.814 25.344C32.8143 25.6038 32.954 25.8432 33.1799 25.9719L35.6893 27.4202C35.9135 27.5514 36.1907 27.5528 36.4159 27.4234C36.6415 27.294 36.7801 27.0535 36.7794 26.7936C36.7791 26.5338 36.6394 26.2944 36.4134 26.1657Z" fill="#B01798"/>
<path d="M33.543 11.5863C33.6703 11.5866 33.7951 11.553 33.905 11.4894L36.4144 10.0411C36.6404 9.9124 36.78 9.67302 36.7804 9.41314C36.7811 9.15326 36.6425 8.91282 36.4172 8.78341C36.1917 8.654 35.9144 8.65541 35.6903 8.78659L33.1809 10.2349C32.8973 10.3989 32.7587 10.7331 32.8436 11.0495C32.9284 11.366 33.2156 11.5863 33.543 11.5863Z" fill="#B01798"/>
<path d="M27.8793 6.18817C28.2258 6.3883 28.6684 6.26949 28.8686 5.92334L30.3169 3.41396C30.5134 3.06815 30.3939 2.62794 30.0492 2.42888C29.7044 2.23016 29.2639 2.34649 29.0623 2.68982L27.6141 5.1992C27.4143 5.54536 27.5331 5.98839 27.8793 6.18817Z" fill="#B01798"/>
<path d="M21 4.34483C21.3999 4.34483 21.7242 4.0206 21.7242 3.6207V0.724145C21.7242 0.324243 21.3999 7.62939e-06 21 7.62939e-06C20.6001 7.62939e-06 20.2759 0.324243 20.2759 0.724145V3.6207C20.2759 4.0206 20.6001 4.34483 21 4.34483Z" fill="#B01798"/>
<path d="M13.1313 5.92334C13.26 6.14928 13.4994 6.28894 13.7593 6.28929C14.0191 6.29 14.2596 6.1514 14.389 5.92581C14.5184 5.70058 14.517 5.42337 14.3858 5.1992L12.9375 2.68982C12.736 2.34649 12.2954 2.23016 11.9507 2.42888C11.6059 2.62794 11.4864 3.06815 11.683 3.41396L13.1313 5.92334Z" fill="#B01798"/>
<path d="M7.2418 18.1035C7.2418 17.7036 6.91756 17.3793 6.51766 17.3793H3.62111C3.22121 17.3793 2.89697 17.7036 2.89697 18.1035C2.89697 18.5034 3.22121 18.8276 3.62111 18.8276H6.51766C6.91756 18.8276 7.2418 18.5034 7.2418 18.1035Z" fill="#B01798"/>
<path d="M38.3795 17.3793H35.4829C35.083 17.3793 34.7588 17.7036 34.7588 18.1035C34.7588 18.5034 35.083 18.8276 35.4829 18.8276H38.3795C38.7794 18.8276 39.1036 18.5034 39.1036 18.1035C39.1036 17.7036 38.7794 17.3793 38.3795 17.3793Z" fill="#B01798"/>
<path d="M24.6203 34.0345H17.3789V35.5213C18.4347 35.4937 20.4926 35.5008 24.6203 35.5213V34.0345Z" fill="#B01798"/>
<path d="M24.6203 36.9679C22.043 36.9573 18.7685 36.9477 17.3789 36.9566V38.3794H24.6203V36.9679Z" fill="#B01798"/>
<path d="M18.8281 39.8275C18.8281 41.0272 19.8008 41.9999 21.0005 41.9999C22.2002 41.9999 23.173 41.0272 23.173 39.8275H18.8281Z" fill="#B01798"/>
<path d="M26.3736 27.542C30.653 25.1061 32.759 20.0962 31.5044 15.3349C30.2503 10.5732 25.9497 7.25089 21.0257 7.23958C16.1013 7.22826 11.7858 10.5311 10.5098 15.2868C9.23367 20.0428 11.3166 25.0619 15.5847 27.5172C16.3987 27.9889 16.9948 28.7615 17.2444 29.6688L24.745 29.6896C24.9784 28.7844 25.565 28.0108 26.3736 27.542ZM18.8267 24.6207C18.6347 24.6207 18.4505 24.5443 18.3147 24.4085L14.2185 20.3119C13.9437 20.028 13.9476 19.5761 14.227 19.2968C14.5063 19.0174 14.9582 19.0135 15.2421 19.2883L18.8267 22.8725L26.5069 15.1917C26.7898 14.9088 27.2487 14.9088 27.5316 15.1917C27.8145 15.4745 27.8145 15.9335 27.5316 16.2163L19.3387 24.4085C19.2029 24.5443 19.0187 24.6207 18.8267 24.6207Z" fill="#B01798"/>
<path d="M24.6203 31.1365L17.3789 31.1185V32.5862H24.6203V31.1365Z" fill="#B01798"/>
</svg>
