<svg width="36" height="42" viewBox="0 0 36 42" fill="none" xmlns="http://www.w3.org/2000/svg">
<g clip-path="url(#clip0)">
<path d="M7.54453 18.8272C7.54453 18.027 7.00394 17.3789 6.3372 17.3789C5.67047 17.3789 5.12988 18.027 5.12988 18.8272V20.9997H7.54453V18.8272Z" fill="#B01798"/>
<path d="M5.73389 39.1036H11.7705V34.7586H5.73389V39.1036ZM6.94121 36.2069H10.5632V37.6553H6.94121V36.2069Z" fill="#B01798"/>
<path d="M7.65331 24.6213L8.01557 22.4488H4.65918L5.02143 24.6213H7.65331Z" fill="#B01798"/>
<path d="M22.6362 27.3272V27.517H24.4472V26.0687H22.9127C22.7314 26.4524 22.6362 26.8862 22.6362 27.3272Z" fill="#B01798"/>
<path d="M17.373 24.6211H20.6557L20.3539 23.1721H17.6749L17.373 24.6211Z" fill="#B01798"/>
<path d="M25.6551 17.2492V12.3099C25.6551 11.91 25.3848 11.5857 25.0514 11.5857H12.9782C12.6448 11.5857 12.3745 11.91 12.3745 12.3099V18.8273H24.7496C24.9582 18.2325 25.2663 17.6954 25.6551 17.2492Z" fill="#B01798"/>
<path d="M12.9782 21.7237H24.4477V20.6374C24.4477 20.5151 24.4554 20.3956 24.4628 20.2754H12.3745V20.9995C12.3745 21.3994 12.6448 21.7237 12.9782 21.7237Z" fill="#B01798"/>
<path d="M24.4479 23.1721H21.5991L21.901 24.6204H22.318C22.7958 23.985 23.4304 23.5497 24.129 23.3782L24.4479 23.3022V23.1721Z" fill="#B01798"/>
<path d="M29.2769 27.3272V27.5171H31.0878V24.7789L31.0038 24.799C30.0011 25.0433 29.2792 26.0995 29.2769 27.3272Z" fill="#B01798"/>
<path d="M25.0513 28.9654H22.0268C21.3601 28.9671 20.821 29.6174 20.8228 30.4172C20.8242 31.217 21.3663 31.8637 22.033 31.862H29.277C30.2771 31.862 31.0879 30.8892 31.0879 29.6895V28.9654H25.0513Z" fill="#B01798"/>
<path d="M28.3713 17.3789C26.8715 17.3807 25.6563 18.8385 25.6548 20.6376V27.517H28.0694V27.3272C28.073 25.4096 29.2004 23.7598 30.767 23.379L31.0877 23.3022V20.6376C31.086 18.8385 29.8707 17.3807 28.3713 17.3789Z" fill="#B01798"/>
<path d="M30.0362 38.3792H26.1027C25.5223 38.38 25.0519 38.9443 25.0513 39.6405V39.8276H31.0879V39.6405C31.0873 38.9443 30.6169 38.38 30.0362 38.3792Z" fill="#B01798"/>
<path d="M27.4658 33.3102H28.6731V36.931H27.4658V33.3102Z" fill="#B01798"/>
<path d="M5.73389 33.3103H11.7705V28.9654H5.73389V33.3103ZM6.94121 30.4137H10.5632V31.862H6.94121V30.4137Z" fill="#B01798"/>
<path d="M21.429 27.3272C21.4311 26.899 21.4903 26.4739 21.6053 26.0687H3.92285V27.517H21.429V27.3272Z" fill="#B01798"/>
<path d="M15.9254 42.0001H18.4812L18.934 37.6559H15.4727L15.9254 42.0001Z" fill="#B01798"/>
<path d="M17.3187 7.59546C18.7554 8.39528 20.4629 7.86667 21.3973 6.33244C22.3317 4.79821 22.2326 2.68586 21.1606 1.28741C20.0889 -0.111388 18.3424 -0.40699 16.9898 0.580941C15.6369 1.56923 15.0544 3.5663 15.5983 5.35052C15.9001 6.34375 16.5194 7.15135 17.3187 7.59546ZM18.109 1.80967H19.3163V3.68299L20.3474 4.91383L19.4973 5.94314L18.29 4.49483C18.175 4.35941 18.1099 4.17518 18.109 3.98212V1.80967Z" fill="#B01798"/>
<path d="M5.73389 40.5518H6.94121V42.0001H5.73389V40.5518Z" fill="#B01798"/>
<path d="M10.563 40.5518H11.7703V42.0001H10.563V40.5518Z" fill="#B01798"/>
<path d="M26.2584 42.0001C26.5918 42.0001 26.8621 41.6759 26.8621 41.276V40.5518H25.6548V41.276C25.6548 41.6759 25.9251 42.0001 26.2584 42.0001Z" fill="#B01798"/>
<path d="M29.8805 42.0001C30.2139 42.0001 30.4842 41.6759 30.4842 41.276V40.5518H29.2769V41.276C29.2769 41.6759 29.5471 42.0001 29.8805 42.0001Z" fill="#B01798"/>
</g>
<defs>
<clipPath id="clip0">
<rect width="35.0116" height="42" fill="white"/>
</clipPath>
</defs>
</svg>
