<svg width="37" height="42" viewBox="0 0 37 42" fill="none" xmlns="http://www.w3.org/2000/svg">
<g clip-path="url(#clip0)">
<path d="M27.9203 23.1033C23.4009 23.1033 19.7363 26.7693 19.7363 31.2879C19.7363 35.8053 23.4009 39.469 27.9203 39.469C32.4375 39.469 36.102 35.8053 36.102 31.2879C36.102 26.7692 32.4375 23.1033 27.9203 23.1033ZM28.4454 37.3365V36.6299C28.4454 36.3377 28.2097 36.1015 27.9203 36.1015C27.628 36.1015 27.3929 36.3383 27.3929 36.6299V37.3365C24.4628 37.0846 22.1222 34.7433 21.8703 31.8135H22.579C22.8685 31.8135 23.1052 31.5777 23.1052 31.2884C23.1052 30.9939 22.8685 30.7609 22.579 30.7609H21.8703C22.1222 27.8301 24.4633 25.491 27.3929 25.238V25.9456C27.3929 26.2368 27.6287 26.473 27.9203 26.473C28.2098 26.473 28.4454 26.2362 28.4454 25.9456V25.238C31.3766 25.491 33.7172 27.8301 33.968 30.7609H33.2593C32.9682 30.7609 32.7331 30.9944 32.7331 31.2884C32.7331 31.5784 32.9688 31.8135 33.2593 31.8135H33.968C33.7178 34.7432 31.3766 37.0839 28.4454 37.3365Z" fill="#B01798"/>
<path d="M31.1554 31.1749H29.2256C28.9683 30.7764 28.5409 30.5117 28.056 30.5117C28.0486 30.5117 28.0406 30.5142 28.0321 30.5142L26.2736 27.8553C26.0175 27.4684 25.5155 27.3786 25.1541 27.6524C24.7938 27.9287 24.7073 28.469 24.9651 28.8571L26.7248 31.5171C26.6708 31.6803 26.6361 31.8539 26.6361 32.0392C26.6361 32.8814 27.2707 33.5629 28.056 33.5629C28.5409 33.5629 28.9705 33.3007 29.2256 32.9009H31.1554C31.5982 32.9009 31.9585 32.5166 31.9585 32.0398C31.9585 31.5606 31.5982 31.1749 31.1554 31.1749Z" fill="#B01798"/>
<path d="M6.08187 13.7171C7.53767 13.7171 8.71573 12.4506 8.71573 10.889V4.75229C8.71573 3.19001 7.53767 1.92418 6.08187 1.92418C4.62721 1.92418 3.44971 3.19001 3.44971 4.75229V10.8896C3.44971 12.4506 4.62714 13.7171 6.08187 13.7171Z" fill="#B01798"/>
<path d="M22.2107 13.7171C23.6666 13.7171 24.8446 12.4506 24.8446 10.889V4.75229C24.8446 3.19001 23.6665 1.92418 22.2107 1.92418C20.7572 1.92418 19.5786 3.19001 19.5786 4.75229V10.8896C19.578 12.4506 20.7572 13.7171 22.2107 13.7171Z" fill="#B01798"/>
<path d="M9.65004 21.5693C9.65004 20.7619 9.04223 20.1079 8.28869 20.1079H5.76525C5.01348 20.1079 4.40283 20.7619 4.40283 21.5693V24.2783C4.40283 25.0869 5.01348 25.7428 5.76525 25.7428H8.28869C9.0416 25.7428 9.65004 25.0869 9.65004 24.2783V21.5693Z" fill="#B01798"/>
<path d="M16.7713 21.5712C16.7713 20.7638 16.1618 20.1104 15.4117 20.1104H12.8871C12.1353 20.1104 11.5269 20.7638 11.5269 21.5712V24.2808C11.5269 25.087 12.1352 25.7428 12.8871 25.7428H15.4117C16.1624 25.7428 16.7713 25.087 16.7713 24.2808V21.5712Z" fill="#B01798"/>
<path d="M20.007 20.1079C19.254 20.1079 18.6445 20.7619 18.6445 21.5693V24.2783C18.6445 25.0099 19.1522 25.5869 19.8033 25.6963C20.8015 24.0264 22.2152 22.6744 23.889 21.8003V21.5693C23.889 20.7619 23.2806 20.1079 22.5276 20.1079H20.007Z" fill="#B01798"/>
<path d="M5.76629 27.451C5.01452 27.451 4.40381 28.1044 4.40381 28.9118V31.6219C4.40381 32.4293 5.01452 33.0827 5.76629 33.0827H8.29093C9.04271 33.0827 9.65052 32.4293 9.65052 31.6219V28.9118C9.65052 28.1044 9.04271 27.451 8.29093 27.451H5.76629Z" fill="#B01798"/>
<path d="M15.4088 27.4524H12.8865C12.1347 27.4524 11.5264 28.107 11.5264 28.9144V31.6221C11.5264 32.4295 12.1347 33.0829 12.8865 33.0829H15.4088C16.1595 33.0829 16.769 32.4295 16.769 31.6221V28.9144C16.769 28.107 16.1595 27.4524 15.4088 27.4524Z" fill="#B01798"/>
<path d="M19.0874 35.8818H6.2852C4.08159 35.8818 2.28829 33.9558 2.28829 31.5916V17.231H26.0068V20.9887C26.7336 20.809 27.4865 20.7039 28.2656 20.7039C28.9337 20.7039 29.5859 20.7779 30.2182 20.913V7.40628H26.4245V10.889C26.4245 13.384 24.5356 15.4133 22.2107 15.4133C19.887 15.4133 17.9982 13.384 17.9982 10.889V7.40628H10.2957V10.889C10.2957 13.384 8.40563 15.4133 6.08197 15.4133C3.75938 15.4133 1.86936 13.384 1.86936 10.889V7.40628H-1.92432V31.591C-1.92432 36.4588 1.75101 40.4079 6.2852 40.4079H22.0082C22.1948 40.4079 22.3792 40.3914 22.5625 40.3785C21.052 39.2575 19.8454 37.7019 19.0874 35.8818Z" fill="#B01798"/>
</g>
<defs>
<clipPath id="clip0">
<rect width="36.7733" height="42" fill="white"/>
</clipPath>
</defs>
</svg>
