<svg width="42" height="42" viewBox="0 0 42 42" fill="none" xmlns="http://www.w3.org/2000/svg">
<g clip-path="url(#clip0)">
<path d="M41.6847 17.1944L38.2991 16.6443C37.8748 14.9541 37.2076 13.3487 36.3104 11.8515L38.2568 9.12471C38.619 8.61817 38.5618 7.9237 38.1211 7.48318L34.5169 3.87897C34.0739 3.43717 33.3807 3.37863 32.8754 3.74329L30.1486 5.68974C28.6514 4.79238 27.0459 4.12536 25.3559 3.70098L24.8057 0.315454C24.7038 -0.299239 24.1723 -0.749786 23.5488 -0.749786H18.4512C17.8276 -0.749786 17.2962 -0.299239 17.1942 0.315538L16.644 3.70106C14.9539 4.12544 13.3485 4.79255 11.8513 5.68983L9.1245 3.74337C8.61796 3.37872 7.9223 3.43717 7.48297 3.87905L3.87876 7.48318C3.43815 7.92379 3.38097 8.61817 3.74307 9.12471L5.68953 11.8515C4.79217 13.3487 4.12514 14.9542 3.70076 16.6443L0.31524 17.1944C-0.299452 17.2964 -0.75 17.8279 -0.75 18.4514V23.549C-0.75 24.1726 -0.299452 24.704 0.315325 24.806L3.70085 25.3562C4.12523 27.0463 4.79234 28.6517 5.68961 30.1489L3.74316 32.8757C3.38097 33.3822 3.43823 34.0767 3.87884 34.5172L7.48305 38.1214C7.92238 38.5608 8.61804 38.6168 9.12458 38.2571L11.8514 36.3107C13.3486 37.208 14.9541 37.8751 16.6441 38.2994L17.1943 41.685C17.2962 42.2997 17.8276 42.7502 18.4512 42.7502H23.5488C24.1723 42.7502 24.7038 42.2997 24.8058 41.6849L25.3559 38.2994C27.0461 37.875 28.6515 37.2079 30.1487 36.3106L32.8755 38.257C33.3808 38.6167 34.0739 38.5607 34.517 38.1214L38.1212 34.5171C38.5618 34.0765 38.619 33.3822 38.2569 32.8756L36.3105 30.1488C37.2078 28.6516 37.8748 27.0461 38.2992 25.3561L41.6847 24.8059C42.2994 24.704 42.75 24.1726 42.75 23.549V18.4514C42.75 17.8279 42.2994 17.2964 41.6847 17.1944ZM21 35.0188C13.2702 35.0188 6.98144 28.73 6.98144 21.0002C6.98144 13.2704 13.2702 6.98166 21 6.98166C28.7298 6.98166 35.0185 13.2704 35.0185 21.0002C35.0185 28.73 28.7298 35.0188 21 35.0188Z" fill="#B01798"/>
</g>
<defs>
<clipPath id="clip0">
<rect width="42" height="42" fill="white"/>
</clipPath>
</defs>
</svg>
