<svg width="41" height="48" viewBox="0 0 41 48" fill="none" xmlns="http://www.w3.org/2000/svg">
<path d="M30.6206 12.8535L29.7388 14.9151H30.6206V12.8535Z" fill="#B01798"/>
<path d="M37 12.8535V14.9151H37.8818L37 12.8535Z" fill="#B01798"/>
<path d="M33.8108 6.15218L32.1521 7.60637C32.0731 7.67607 32.009 7.76619 31.9647 7.86969C31.9205 7.97318 31.8973 8.08725 31.897 8.20296V14.9146H33.1728V12.6774H34.4487V14.9146H35.7246V8.20296C35.7243 8.08725 35.7011 7.97318 35.6568 7.86969C35.6126 7.76619 35.5484 7.67607 35.4694 7.60637L33.8108 6.15218ZM34.4487 10.4402H33.1728V8.9487H34.4487V10.4402Z" fill="#B01798"/>
<path d="M34.4485 16.4062H33.1724V17.672L33.8104 18.7908L34.4485 17.672V16.4062Z" fill="#B01798"/>
<path d="M22.9657 23.2651L23.6038 22.1463V20.8805H22.3276V22.1463L22.9657 23.2651Z" fill="#B01798"/>
<path d="M24.8799 15.3703V19.3891H26.9423L24.8799 15.3703Z" fill="#B01798"/>
<path d="M20.414 12.6779C20.7664 12.6779 21.052 12.3439 21.052 11.932C21.052 11.52 20.7664 11.1861 20.414 11.1861C20.0616 11.1861 19.7759 11.52 19.7759 11.932C19.7759 12.3439 20.0616 12.6779 20.414 12.6779Z" fill="#B01798"/>
<path d="M31.4388 31.5482C31.3382 31.5169 31.2456 31.4574 31.169 31.3749C31.0924 31.2924 31.0342 31.1894 30.9993 31.0747C30.6915 30.0577 30.122 29.177 29.3689 28.5534C28.6159 27.9299 27.7162 27.5941 26.7933 27.5921C26.0784 27.5905 25.3739 27.7922 24.7405 28.1797C24.5958 28.2675 24.4278 28.2872 24.2711 28.2348C24.1144 28.1823 23.9808 28.0618 23.8977 27.8978C23.1675 26.4474 22.0727 25.2953 20.7623 24.5981C19.452 23.9009 17.9897 23.6926 16.5744 24.0014C15.1592 24.3103 13.8597 25.1213 12.8528 26.3242C11.8459 27.5271 11.1804 29.0635 10.947 30.7242C10.9241 30.8878 10.8553 31.0379 10.7513 31.1507C10.6473 31.2634 10.5142 31.3325 10.3729 31.3469C8.90243 31.4986 7.53848 32.3066 6.56424 33.603C5.59 34.8994 5.08035 36.5846 5.1411 38.3088C5.20185 40.0329 5.82835 41.6634 6.89049 42.8618C7.95263 44.0602 9.36881 44.7342 10.8449 44.7441H29.983C31.3782 44.745 32.7258 44.1516 33.7738 43.075C34.8218 41.9984 35.4983 40.5123 35.6767 38.8948C35.8551 37.2773 35.5233 35.6391 34.7433 34.287C33.9633 32.9348 32.7885 31.9611 31.4388 31.5482Z" fill="#B01798"/>
<path d="M15.9487 15.3703L13.8862 19.3891H15.9487V15.3703Z" fill="#B01798"/>
<path d="M17.8622 22.3723C18.0766 22.3723 18.2878 22.3992 18.5003 22.4185V20.8805H17.2241V22.1485L17.3658 22.3984C17.5304 22.3857 17.695 22.3723 17.8622 22.3723Z" fill="#B01798"/>
<path d="M19.7759 22.6438C20.1878 22.7617 20.5914 22.9163 20.9831 23.1063L21.052 22.9437V20.8805H19.7759V22.6438Z" fill="#B01798"/>
<path d="M19.7759 17.1518H21.0517V19.3891H23.6035V8.56019C23.603 8.02636 23.4397 7.51024 23.1429 7.10451L20.4138 3.38327L17.6853 7.10451C17.3879 7.50983 17.2243 8.02616 17.2241 8.56019V19.3891H19.7759V17.1518ZM18.5 11.9317C18.5 11.4892 18.6122 11.0567 18.8225 10.6887C19.0328 10.3208 19.3317 10.0341 19.6814 9.86475C20.0311 9.69543 20.4159 9.65112 20.7872 9.73744C21.1584 9.82377 21.4994 10.0368 21.7671 10.3497C22.0347 10.6626 22.217 11.0612 22.2908 11.4952C22.3647 11.9292 22.3268 12.379 22.1819 12.7878C22.0371 13.1966 21.7918 13.546 21.4771 13.7919C21.1623 14.0377 20.7923 14.1689 20.4138 14.1689C19.9062 14.1689 19.4194 13.9332 19.0605 13.5136C18.7016 13.0941 18.5 12.525 18.5 11.9317Z" fill="#B01798"/>
<path d="M10.207 12.8535V14.9151H11.0889L10.207 12.8535Z" fill="#B01798"/>
<path d="M3.82811 14.9151V12.8535L2.94629 14.9151H3.82811Z" fill="#B01798"/>
<path d="M7.65555 16.4062H6.37939V17.672L7.01747 18.7908L7.65555 17.672V16.4062Z" fill="#B01798"/>
<path d="M6.3789 12.6774H7.65477V14.9146H8.93064V8.20296C8.93035 8.08725 8.90716 7.97318 8.86289 7.86969C8.81863 7.76619 8.75448 7.67607 8.67547 7.60637L7.01684 6.15218L5.3582 7.60637C5.27919 7.67607 5.21504 7.76619 5.17078 7.86969C5.12651 7.97318 5.10332 8.08725 5.10303 8.20296V14.9146H6.3789V12.6774ZM6.3789 8.9487H7.65477V10.4402H6.3789V8.9487Z" fill="#B01798"/>
<path d="M6.37939 22.3721H7.65555V23.8639H6.37939V22.3721Z" fill="#B01798"/>
<path d="M6.37939 25.3549H7.65555V26.8467H6.37939V25.3549Z" fill="#B01798"/>
<path d="M2.55127 17.8976H3.82742V19.3894H2.55127V17.8976Z" fill="#B01798"/>
<path d="M2.55127 20.8805H3.82742V22.3723H2.55127V20.8805Z" fill="#B01798"/>
<path d="M10.207 17.8976H11.4832V19.3894H10.207V17.8976Z" fill="#B01798"/>
<path d="M10.207 20.8805H11.4832V22.3723H10.207V20.8805Z" fill="#B01798"/>
<path d="M33.1724 22.3721H34.4485V23.8639H33.1724V22.3721Z" fill="#B01798"/>
<path d="M33.1724 25.3549H34.4485V26.8467H33.1724V25.3549Z" fill="#B01798"/>
<path d="M29.3447 17.8976H30.6209V19.3894H29.3447V17.8976Z" fill="#B01798"/>
<path d="M29.3447 20.8805H30.6209V22.3723H29.3447V20.8805Z" fill="#B01798"/>
<path d="M37 17.8976H38.2762V19.3894H37V17.8976Z" fill="#B01798"/>
<path d="M37 20.8805H38.2762V22.3723H37V20.8805Z" fill="#B01798"/>
</svg>
